<?xml version="1.0" encoding="UTF-8" standalone="no" ?>
<!DOCTYPE svg PUBLIC "-//W3C//DTD SVG 1.1//EN" "http://www.w3.org/Graphics/SVG/1.1/DTD/svg11.dtd">
<svg xmlns="http://www.w3.org/2000/svg" xmlns:xlink="http://www.w3.org/1999/xlink" version="1.1" width="400" height="400" viewBox="0 0 400 400" xml:space="preserve">
<desc>Created with Fabric.js 3.6.2</desc>
<defs>
</defs>
<g transform="matrix(3.13 0 0 3.13 200 200)" id="Layer_1"  >
<circle style="stroke: none; stroke-width: 1; stroke-dasharray: none; stroke-linecap: butt; stroke-dashoffset: 0; stroke-linejoin: miter; stroke-miterlimit: 4; fill: rgb(119,179,212); fill-rule: nonzero; opacity: 1;"  cx="0" cy="0" r="32" />
</g>
<g transform="matrix(3.13 0 0 3.13 200 206.25)" id="Layer_1"  >
<path style="stroke: none; stroke-width: 1; stroke-dasharray: none; stroke-linecap: butt; stroke-dashoffset: 0; stroke-linejoin: miter; stroke-miterlimit: 4; fill: rgb(35,31,32); fill-rule: nonzero; opacity: 0.2;"  transform=" translate(-32, -34)" d="M 52 44 c 0 2.209 -1.791 4 -4 4 H 16 c -2.209 0 -4 -1.791 -4 -4 V 24 c 0 -2.209 1.791 -4 4 -4 h 32 c 2.209 0 4 1.791 4 4 V 44 z" stroke-linecap="round" />
</g>
<g transform="matrix(3.13 0 0 3.13 200 200)" id="Layer_1"  >
<path style="stroke: none; stroke-width: 1; stroke-dasharray: none; stroke-linecap: butt; stroke-dashoffset: 0; stroke-linejoin: miter; stroke-miterlimit: 4; fill: rgb(224,224,209); fill-rule: nonzero; opacity: 1;"  transform=" translate(-32, -32)" d="M 52 42 c 0 2.209 -1.791 4 -4 4 H 16 c -2.209 0 -4 -1.791 -4 -4 V 22 c 0 -2.209 1.791 -4 4 -4 h 32 c 2.209 0 4 1.791 4 4 V 42 z" stroke-linecap="round" />
</g>
<g transform="matrix(3.13 0 0 3.13 200 216.52)" id="Layer_1"  >
<path style="stroke: none; stroke-width: 1; stroke-dasharray: none; stroke-linecap: butt; stroke-dashoffset: 0; stroke-linejoin: miter; stroke-miterlimit: 4; fill: rgb(35,31,32); fill-rule: nonzero; opacity: 0.2;"  transform=" translate(-32, -37.29)" d="M 35.524 30.185 c -1.938 -2.146 -5.109 -2.146 -7.047 0 L 13.05 43.228 c -0.18 0.199 -0.328 0.393 -0.461 0.585 C 13.29 45.119 14.549 46 16 46 h 32 c 1.451 0 2.71 -0.881 3.411 -2.187 c -0.133 -0.191 -0.281 -0.385 -0.461 -0.585 L 35.524 30.185 z" stroke-linecap="round" />
</g>
<g transform="matrix(3.13 0 0 3.13 200 219.65)" id="Layer_1"  >
<path style="stroke: none; stroke-width: 1; stroke-dasharray: none; stroke-linecap: butt; stroke-dashoffset: 0; stroke-linejoin: miter; stroke-miterlimit: 4; fill: rgb(224,224,209); fill-rule: nonzero; opacity: 1;"  transform=" translate(-32, -38.29)" d="M 35.524 32 c -1.938 -1.9 -5.109 -1.9 -7.047 0 L 13.05 43.546 c -0.18 0.176 -0.328 0.348 -0.461 0.517 C 13.29 45.22 14.549 46 16 46 h 32 c 1.451 0 2.71 -0.78 3.411 -1.936 c -0.133 -0.169 -0.281 -0.341 -0.461 -0.517 L 35.524 32 z" stroke-linecap="round" />
</g>
<g transform="matrix(3.13 0 0 3.13 200 183.48)" id="Layer_1"  >
<path style="stroke: none; stroke-width: 1; stroke-dasharray: none; stroke-linecap: butt; stroke-dashoffset: 0; stroke-linejoin: miter; stroke-miterlimit: 4; fill: rgb(35,31,32); fill-rule: nonzero; opacity: 0.2;"  transform=" translate(-32, -26.71)" d="M 12.589 20.187 C 13.29 18.881 14.549 18 16 18 h 32 c 1.451 0 2.71 0.881 3.411 2.187 c -0.133 0.191 -0.281 0.385 -0.461 0.585 L 35.524 33.815 c -1.938 2.146 -5.109 2.146 -7.047 0 L 12.589 20.187 z" stroke-linecap="round" />
</g>
<g transform="matrix(3.13 0 0 3.13 200 180.35)" id="Layer_1"  >
<path style="stroke: none; stroke-width: 1; stroke-dasharray: none; stroke-linecap: butt; stroke-dashoffset: 0; stroke-linejoin: miter; stroke-miterlimit: 4; fill: rgb(255,255,255); fill-rule: nonzero; opacity: 1;"  transform=" translate(-32, -25.71)" d="M 28.476 32 c 1.938 1.9 5.109 1.9 7.047 0 L 50.95 20.454 c 0.18 -0.176 0.328 -0.348 0.461 -0.517 C 50.71 18.78 49.451 18 48 18 H 16 c -1.451 0 -2.71 0.78 -3.411 1.936 c 0.133 0.169 0.281 0.341 0.461 0.517 L 28.476 32 z" stroke-linecap="round" />
</g>
</svg>